<svg xmlns="http://www.w3.org/2000/svg" viewBox="0 0 512 512" width="512" height="512">
  <defs>
    <linearGradient id="bg" x1="0" y1="0" x2="0.35" y2="1">
      <stop offset="0" stop-color="#232c40"/>
      <stop offset="1" stop-color="#080b12"/>
    </linearGradient>
    <linearGradient id="mast" x1="0" y1="0" x2="0" y2="1">
      <stop offset="0" stop-color="#ffffff"/>
      <stop offset="1" stop-color="#9fb0c9"/>
    </linearGradient>
  </defs>

  <rect width="512" height="512" rx="114" fill="url(#bg)"/>
  <rect x="6" y="6" width="500" height="500" rx="110" fill="none" stroke="#ffffff" stroke-opacity="0.10" stroke-width="12"/>

  <!-- ondas de radio -->
  <g fill="none" stroke="#ff3b30" stroke-linecap="round" stroke-width="17">
    <path d="M188 148a96 96 0 0 1 136 0" stroke-opacity="0.95"/>
    <path d="M147 107a154 154 0 0 1 218 0" stroke-opacity="0.55"/>
  </g>

  <!-- torre -->
  <g stroke="url(#mast)" stroke-linecap="round" fill="none" stroke-width="19">
    <path d="M256 186v-42"/>
    <path d="M199 412 245 200"/>
    <path d="M313 412 267 200"/>
  </g>
  <g stroke="#7e8ca3" stroke-linecap="round" stroke-width="13">
    <path d="M240 268h32"/>
    <path d="M231 318h50"/>
    <path d="M221 368h70"/>
  </g>
  <circle cx="256" cy="186" r="21" fill="#ff3b30"/>

  <!-- base / pista -->
  <path d="M150 424h212" stroke="#ff9500" stroke-width="20" stroke-linecap="round"/>
</svg>
